<?xml version="1.0" encoding="utf-8"?>
<!-- Generated by IcoMoon.io -->
<!DOCTYPE svg PUBLIC "-//W3C//DTD SVG 1.1//EN" "http://www.w3.org/Graphics/SVG/1.1/DTD/svg11.dtd">
<svg version="1.1" xmlns="http://www.w3.org/2000/svg" xmlns:xlink="http://www.w3.org/1999/xlink" width="512" height="512" fill="#FFFFFF" viewBox="0 0 512 512">
<g>
</g>
	<path d="M478.74 48.752l-0.338-1.761-3.144 0.358 3.481 1.403zM22.108 235.827h474.020v229.182h-474.020v-229.181zM47.493 258.447v183.952h423.25v-183.952h-423.25zM73.575 302.971v15.657h369.346v-15.657h-369.346zM73.575 268.892v15.298h369.346v-15.298h-369.346zM35.666 248.013v204.851h446.894v-204.851h-446.894zM21.433 181.913h63.621l-63.621 41.421v-41.421zM129.925 181.913l2.806 4.536-68.894 44.862h45.916l76.135-49.398h-55.962zM240.517 181.913h53.924l-76.185 49.398h-53.545l75.806-49.398zM349.020 181.913l-75.796 49.398h50.422l76.165-49.398h-50.791zM454.38 181.913h39.659v11.858l-58.082 37.54h-57.385l75.807-49.398zM494.039 229.212l-3.123 2.099h3.123v-2.099zM22.466 179.845l62.587-12.165-69.181-22.948 6.595 35.113zM129.229 158.986l2.099-4.516-75.121-24.72 45.21-8.704 82.77 27.177-54.958 10.762zM237.742 137.411l52.859-10.055-82.77-27.505-52.88 10.455 82.791 27.105zM344.156 116.531l-82.8-27.085 49.746-9.738 82.78 27.115-49.726 9.707zM447.795 96.389l38.605-7.639-1.741-10.097-63.303-20.521-56.341 11.12 82.78 27.136z" fill="#FFFFFF" />
</svg>
